<svg width="40" height="40" viewBox="0 0 40 40" fill="none" xmlns="http://www.w3.org/2000/svg">
<rect x="0.833333" y="0.833333" width="38.3333" height="38.3333" rx="3.33333" stroke="#DD5409" stroke-width="1.66667"/>
<path d="M12.5001 24.166H22.5001C22.9603 24.166 23.3334 24.5391 23.3334 24.9993C23.3334 25.4267 23.0117 25.7789 22.5973 25.8271L22.5001 25.8327H12.5001C12.0398 25.8327 11.6667 25.4596 11.6667 24.9993C11.6667 24.572 11.9884 24.2198 12.4029 24.1716L12.5001 24.166H22.5001H12.5001ZM12.5001 19.166H27.5001C27.9603 19.166 28.3334 19.5391 28.3334 19.9993C28.3334 20.4267 28.0117 20.7789 27.5973 20.8271L27.5001 20.8327H12.5001C12.0398 20.8327 11.6667 20.4596 11.6667 19.9993C11.6667 19.572 11.9884 19.2198 12.4029 19.1716L12.5001 19.166H27.5001H12.5001ZM12.5001 14.166H25.0001C25.4603 14.166 25.8334 14.5391 25.8334 14.9993C25.8334 15.4267 25.5117 15.7789 25.0973 15.8271L25.0001 15.8327H12.5001C12.0398 15.8327 11.6667 15.4596 11.6667 14.9993C11.6667 14.572 11.9884 14.2198 12.4029 14.1716L12.5001 14.166H25.0001H12.5001Z" fill="#DD5409"/>
</svg>
