<svg xmlns="http://www.w3.org/2000/svg" width="21" height="21" viewBox="0 0 21 21" fill="none">
<g clip-path="url(#clip0_4900_1451)">
<path d="M10.5003 2.31348C10.3187 2.31348 10.1403 2.31514 9.96533 2.31764L9.45199 2.33181L9.20283 2.34264L8.72033 2.37098L8.25949 2.40931C4.27199 2.79598 2.64949 4.41848 2.26283 8.40598L2.22449 8.86681L2.19616 9.34931C2.19199 9.43098 2.18783 9.51431 2.18533 9.59848L2.17116 10.1118L2.16783 10.3768L2.16699 10.6468C2.16699 10.8285 2.16866 11.0068 2.17116 11.1818L2.18533 11.6951L2.19616 11.9443L2.22449 12.4268L2.26283 12.8876C2.64949 16.8751 4.27199 18.4976 8.25949 18.8843L8.72033 18.9226L9.20283 18.951C9.28449 18.9551 9.36783 18.9593 9.45199 18.9618L9.96533 18.976L10.5003 18.9801L11.0353 18.976L11.5487 18.9618L11.7978 18.951L12.2803 18.9226L12.7412 18.8843C16.7287 18.4976 18.3512 16.8751 18.7378 12.8876L18.7762 12.4268L18.8045 11.9443C18.8087 11.8626 18.8128 11.7793 18.8153 11.6951L18.8295 11.1818L18.8337 10.6468L18.8295 10.1118L18.8153 9.59848L18.8045 9.34931L18.7762 8.86681L18.7378 8.40598C18.3512 4.41848 16.7287 2.79598 12.7412 2.40931L12.2803 2.37098L11.7978 2.34264C11.7148 2.33859 11.6317 2.33498 11.5487 2.33181L11.0353 2.31764L10.7703 2.31431L10.5003 2.31348ZM9.07783 7.55764C9.22132 7.41416 9.41224 7.32797 9.61476 7.31524C9.81728 7.3025 10.0175 7.3641 10.1778 7.48848L10.2562 7.55764L12.7562 10.0576C12.8996 10.2011 12.9858 10.3921 12.9986 10.5946C13.0113 10.7971 12.9497 10.9973 12.8253 11.1576L12.7562 11.236L10.2562 13.736C10.1062 13.8854 9.90496 13.9722 9.69334 13.9787C9.48171 13.9851 9.27557 13.9108 9.11676 13.7708C8.95796 13.6307 8.8584 13.4355 8.83833 13.2247C8.81825 13.014 8.87915 12.8035 9.00866 12.636L9.07783 12.5576L10.9878 10.6468L9.07783 8.73598C8.93435 8.59248 8.84815 8.40157 8.83542 8.19904C8.82268 7.99652 8.88428 7.79631 9.00866 7.63598L9.07783 7.55764Z" fill="white"/>
</g>
<defs>
<clipPath id="clip0_4900_1451">
<rect width="20" height="20" fill="white" transform="translate(0.5 0.646484)"/>
</clipPath>
</defs>
</svg>