<?xml version="1.0" standalone="no"?>
<!DOCTYPE svg PUBLIC "-//W3C//DTD SVG 20010904//EN"
 "http://www.w3.org/TR/2001/REC-SVG-20010904/DTD/svg10.dtd">
<svg version="1.0" xmlns="http://www.w3.org/2000/svg"
 width="20.000000pt" height="20.000000pt" viewBox="0 0 512.000000 512.000000"
 preserveAspectRatio="xMidYMid meet">

<g transform="translate(0.000000,512.000000) scale(0.100000,-0.100000)"
fill="#000000" stroke="none">
<path d="M1145 5109 c-257 -24 -522 -146 -720 -331 -134 -125 -253 -313 -314
-494 -63 -188 -61 -123 -61 -1724 0 -1601 -2 -1536 61 -1724 121 -361 411
-650 774 -770 191 -63 101 -59 1580 -63 874 -3 1394 -1 1475 6 222 18 423 88
601 208 214 145 385 371 468 619 63 188 61 123 61 1724 0 1601 2 1536 -61
1724 -136 407 -477 711 -904 807 l-100 23 -1385 2 c-762 1 -1425 -2 -1475 -7z
m1250 -1200 c55 -15 127 -91 143 -150 11 -41 252 -1956 252 -2003 0 -15 -69
-87 -225 -235 -163 -154 -223 -217 -215 -225 13 -13 1287 -16 1332 -4 40 12
89 57 109 103 18 38 19 88 19 940 0 858 -1 902 -19 941 -10 23 -36 54 -57 70
l-37 29 -518 3 -517 3 -6 31 c-3 17 -6 37 -6 44 0 22 998 20 1062 -2 63 -21
126 -78 154 -138 l24 -51 0 -930 0 -930 -24 -50 c-24 -52 -72 -101 -129 -132
-30 -17 -81 -18 -722 -18 -689 0 -690 0 -730 22 -22 12 -57 39 -77 60 -61 63
-71 98 -76 270 l-4 152 -372 3 c-358 3 -372 4 -411 25 -50 27 -80 58 -100 105
-13 33 -15 151 -15 975 0 895 1 940 19 979 21 46 73 92 123 111 45 16 965 18
1023 2z m869 -1165 c9 -9 16 -32 16 -55 l0 -39 159 0 c168 0 191 -6 191 -49 0
-31 -22 -41 -95 -41 l-71 0 -12 -80 c-18 -123 -71 -258 -144 -362 -10 -13 -9
-21 5 -36 29 -32 112 -72 163 -78 58 -8 74 -19 74 -50 0 -36 -29 -45 -96 -33
-64 12 -135 44 -182 83 -16 15 -32 26 -35 26 -4 0 -31 -18 -63 -40 -57 -40
-117 -64 -189 -75 -33 -5 -44 -2 -59 14 -24 26 -13 59 22 66 87 17 122 30 170
61 28 19 52 36 52 38 0 1 -22 39 -48 83 -54 90 -106 234 -98 269 7 27 41 40
60 24 8 -6 25 -48 40 -93 27 -88 93 -210 110 -204 19 6 83 125 105 195 11 37
25 95 29 130 l9 62 -252 0 c-182 0 -254 3 -263 12 -18 18 -14 56 7 68 11 5 86
10 170 10 l151 0 0 35 c0 22 8 43 20 55 24 24 34 25 54 4z"/>
<path d="M1982 3213 c-57 -110 -352 -768 -350 -781 2 -10 14 -18 29 -20 23 -3
29 6 81 120 l56 123 212 0 213 0 51 -113 c59 -128 77 -152 100 -132 9 7 16 20
16 29 0 9 -80 190 -178 401 -146 314 -182 386 -200 388 -12 2 -24 -4 -30 -15z
m117 -290 c44 -98 81 -181 81 -185 0 -5 -76 -8 -170 -8 -93 0 -170 3 -170 8 0
13 164 362 170 362 4 0 44 -80 89 -177z"/>
</g>
</svg>
